Run_40002
nRows=4
nColumns=164

# SIMM Motion File Header:
name Run_40002
datacolumns 164
datarows 4
otherdata 1
range 3.12000000 3.15000000
endheader
time	pelvis_tilt	pelvis_list	pelvis_rotation	pelvis_tx	pelvis_ty	pelvis_tz	hip_flexion_r	hip_adduction_r	hip_rotation_r	knee_angle_r	ankle_angle_r	hip_flexion_l	hip_adduction_l	hip_rotation_l	knee_angle_l	ankle_angle_l	lumbar_extension	lumbar_bending	lumbar_rotation	arm_flex_r	arm_add_r	arm_rot_r	elbow_flex_r	pro_sup_r	arm_flex_l	arm_add_l	arm_rot_l	elbow_flex_l	pro_sup_l	subtalar_angle_r	mtp_angle_r	subtalar_angle_l	mtp_angle_l	wrist_flex_r	wrist_dev_r	wrist_flex_l	wrist_dev_l	LASI_tx	LASI_ty	LASI_tz	RASI_tx	RASI_ty	RASI_tz	LPSI_tx	LPSI_ty	LPSI_tz	RPSI_tx	RPSI_ty	RPSI_tz	RTH1_tx	RTH1_ty	RTH1_tz	RTH2_tx	RTH2_ty	RTH2_tz	RTH3_tx	RTH3_ty	RTH3_tz	LTH1_tx	LTH1_ty	LTH1_tz	LTH2_tx	LTH2_ty	LTH2_tz	LTH3_tx	LTH3_ty	LTH3_tz	RTB1_tx	RTB1_ty	RTB1_tz	RTB2_tx	RTB2_ty	RTB2_tz	RTB3_tx	RTB3_ty	RTB3_tz	LTB1_tx	LTB1_ty	LTB1_tz	LTB2_tx	LTB2_ty	LTB2_tz	LTB3_tx	LTB3_ty	LTB3_tz	RCAL_tx	RCAL_ty	RCAL_tz	RTOE_tx	RTOE_ty	RTOE_tz	RMT5_tx	RMT5_ty	RMT5_tz	LCAL_tx	LCAL_ty	LCAL_tz	LTOE_tx	LTOE_ty	LTOE_tz	LMT5_tx	LMT5_ty	LMT5_tz	LACR_tx	LACR_ty	LACR_tz	RACR_tx	RACR_ty	RACR_tz	CLAV_tx	CLAV_ty	CLAV_tz	C7_tx	C7_ty	C7_tz	RUA1_tx	RUA1_ty	RUA1_tz	RUA2_tx	RUA2_ty	RUA2_tz	RUA3_tx	RUA3_ty	RUA3_tz	RLEL_tx	RLEL_ty	RLEL_tz	RMEL_tx	RMEL_ty	RMEL_tz	LUA1_tx	LUA1_ty	LUA1_tz	LUA2_tx	LUA2_ty	LUA2_tz	LUA3_tx	LUA3_ty	LUA3_tz	LLEL_tx	LLEL_ty	LLEL_tz	LMEL_tx	LMEL_ty	LMEL_tz	RFAsuperior_tx	RFAsuperior_ty	RFAsuperior_tz	RFAradius_tx	RFAradius_ty	RFAradius_tz	RFAulna_tx	RFAulna_ty	RFAulna_tz	LFAsuperior_tx	LFAsuperior_ty	LFAsuperior_tz	LFAradius_tx	LFAradius_ty	LFAradius_tz	LFAulna_tx	LFAulna_ty	LFAulna_tz
      3.12000000	     -2.08390181	      2.34036808	      1.79314613	      1.17282810	      0.98907483	     -0.32041892	    -15.24774353	      5.23361486	      2.23597905	    -71.04392991	    -16.31260970	     20.18663251	      8.63269347	      9.93805968	     -2.89879080	     -3.00206472	    -13.08013809	     -3.84631930	     13.85177475	    -32.25450713	    -23.42382238	      0.63120444	    130.44004342	     94.17792136	    -41.22464503	    -17.16312052	    -13.97506454	    133.75290931	     90.05272705	      0.00000000	      0.00000000	      0.00000000	      0.00000000	      0.00000000	      0.00000000	      0.00000000	      0.00000000	      1.17607175	      1.01640264	     -0.43469178	      1.18370541	      1.00193409	     -0.18984620	      1.00740627	      1.06950864	     -0.35351781	      1.00955738	      1.06345146	     -0.26005784	      1.10308271	      0.81655546	     -0.15200097	      1.09938630	      0.71173991	     -0.17489096	      0.99316758	      0.60396093	     -0.18130345	      1.11676314	      0.87394331	     -0.50648090	      1.22000942	      0.76940986	     -0.49108820	      1.19099071	      0.63731147	     -0.46392320	      0.81556746	      0.44026967	     -0.25219889	      0.71018643	      0.48023000	     -0.20343928	      0.63523367	      0.45112852	     -0.26172506	      1.31011497	      0.38107567	     -0.38306094	      1.28547886	      0.31118844	     -0.41841221	      1.32511879	      0.24445739	     -0.35982833	      0.55095367	      0.56451383	     -0.24092139	      0.49193392	      0.34518940	     -0.30581936	      0.45735350	      0.35249210	     -0.23347324	      1.24809587	      0.08726503	     -0.32421218	      1.51795610	      0.10659852	     -0.31037746	      1.46297803	      0.11468528	     -0.39410536	      1.14870295	      1.53525379	     -0.48593322	      1.23702435	      1.52485054	     -0.17021731	      1.24303121	      1.46331895	     -0.31059360	      1.13046220	      1.55951056	     -0.31322125	      1.20085800	      1.41761619	     -0.06317154	      1.13686917	      1.42141043	     -0.04244986	      1.14769828	      1.35416909	     -0.01323883	      1.10963488	      1.28353274	      0.01907975	      1.03592474	      1.28892531	     -0.04276086	      1.03886937	      1.47752043	     -0.54904380	      0.96487312	      1.45506989	     -0.49595073	      0.94247386	      1.39909239	     -0.56119513	      0.89044494	      1.34264434	     -0.56974979	      0.89175366	      1.31968400	     -0.47825197	      1.17897114	      1.26304008	     -0.03236703	      1.27009586	      1.23441976	     -0.17511734	      1.26159061	      1.16977547	     -0.14399357	      0.96717117	      1.30218058	     -0.58878080	      1.14300809	      1.26451123	     -0.55623471	      1.11600832	      1.20173007	     -0.57680587
      3.13000000	     -1.59571836	      3.14527579	      1.61792985	      1.17014803	      0.98268624	     -0.32028973	    -12.84012061	      3.09948770	      0.16073361	    -77.88605619	    -14.32165008	     19.56181601	      9.70325542	      9.84221502	     -5.40577817	     -3.69786672	    -13.87453429	     -4.73632435	     12.73435479	    -32.18586362	    -22.23632764	      0.38765802	    126.96019883	     93.96848278	    -38.10227374	    -17.77711637	    -13.25919424	    132.55843594	     89.73537224	      0.00000000	      0.00000000	      0.00000000	      0.00000000	      0.00000000	      0.00000000	      0.00000000	      0.00000000	      1.17406438	      1.00935871	     -0.43465036	      1.18090711	      0.99574856	     -0.18756797	      1.00525497	      1.06178541	     -0.35297790	      1.00677364	      1.05553025	     -0.25953100	      1.10333314	      0.80960712	     -0.14927824	      1.10504522	      0.70409249	     -0.16957066	      1.00295205	      0.59301487	     -0.17720551	      1.11511472	      0.86789198	     -0.50521768	      1.21811165	      0.76783094	     -0.48926012	      1.19064976	      0.63233266	     -0.46441050	      0.83018390	      0.43626395	     -0.24661042	      0.72725605	      0.48486861	     -0.20038997	      0.65151562	      0.45833549	     -0.25935000	      1.30083701	      0.36915142	     -0.38272917	      1.27204331	      0.30080979	     -0.41718190	      1.30800426	      0.23231858	     -0.35830963	      0.57274664	      0.57816509	     -0.24581752	      0.50467966	      0.35771812	     -0.29637358	      0.47033094	      0.37144864	     -0.22463421	      1.22070214	      0.08830281	     -0.32314681	      1.49823098	      0.08882780	     -0.30680997	      1.44326148	      0.09632276	     -0.39064698	      1.15056249	      1.52474130	     -0.48791915	      1.23372496	      1.51565890	     -0.16931775	      1.24212646	      1.45364621	     -0.30999902	      1.13032525	      1.55044316	     -0.31474981	      1.19237023	      1.40906812	     -0.06284811	      1.12794486	      1.41301807	     -0.04421868	      1.13740048	      1.34477474	     -0.01537837	      1.09792135	      1.27494499	      0.01581104	      1.02705470	      1.28118213	     -0.04839797	      1.04319492	      1.46273230	     -0.55339990	      0.96727071	      1.43844940	     -0.50403074	      0.94970639	      1.38037741	     -0.56873795	      0.90005818	      1.32264223	     -0.57863897	      0.89896418	      1.29991553	     -0.48703036	      1.16819134	      1.24956712	     -0.03226595	      1.26323213	      1.21110713	     -0.17012763	      1.25044510	      1.14804725	     -0.13779508	      0.97833565	      1.28464733	     -0.59554837	      1.15400708	      1.25187581	     -0.55834222	      1.12944933	      1.18838558	     -0.57981464
      3.14000000	     -1.15746598	      4.21669119	      1.39011565	      1.16662790	      0.97581084	     -0.32026954	    -10.21631759	      0.63171077	     -1.38451808	    -84.57677986	    -12.16897371	     19.54955849	     11.21339144	      8.94365214	     -9.49632130	     -3.08470616	    -14.70988029	     -5.92138507	     11.42763670	    -31.82604796	    -20.96664327	      0.19655237	    123.24901778	     93.62727259	    -34.89043901	    -18.34504974	    -12.61035602	    131.18059767	     89.29836272	      0.00000000	      0.00000000	      0.00000000	      0.00000000	      0.00000000	      0.00000000	      0.00000000	      0.00000000	      1.17154611	      1.00233859	     -0.43471321	      1.17767531	      0.98854661	     -0.18511491	      1.00265659	      1.05415049	     -0.35267436	      1.00293998	      1.04746471	     -0.25904977	      1.10322403	      0.80188653	     -0.14691015	      1.11071261	      0.69635987	     -0.16445349	      1.01385481	      0.58144459	     -0.17297804	      1.11328199	      0.86064803	     -0.50388018	      1.21573865	      0.76391532	     -0.48658166	      1.18933051	      0.62693816	     -0.46580143	      0.84667383	      0.43164240	     -0.24156120	      0.74636241	      0.48721963	     -0.19754486	      0.67027549	      0.46335965	     -0.25750142	      1.29189891	      0.35873061	     -0.38226364	      1.25830445	      0.29235328	     -0.41552624	      1.28955600	      0.22242527	     -0.35574204	      0.59670371	      0.58813032	     -0.25065169	      0.52114632	      0.36740816	     -0.28712942	      0.48741102	      0.38712306	     -0.21621124	      1.19006476	      0.09152337	     -0.32102779	      1.47124579	      0.07261167	     -0.30405860	      1.41628705	      0.07952100	     -0.38800417	      1.15288991	      1.51343257	     -0.49021858	      1.22981172	      1.50578788	     -0.16785549	      1.24130435	      1.44333148	     -0.30912327	      1.13038673	      1.54042628	     -0.31647304	      1.18334692	      1.39898776	     -0.06304097	      1.11842413	      1.40336566	     -0.04613786	      1.12638151	      1.33368086	     -0.01854465	      1.08554203	      1.26514136	      0.01217752	      1.01763556	      1.27214436	     -0.05479201	      1.04785281	      1.44669158	     -0.55749893	      0.97029025	      1.42039677	     -0.51229320	      0.95783733	      1.36039920	     -0.57617180	      0.91074702	      1.30188262	     -0.58761761	      0.90687540	      1.27922572	     -0.49587361	      1.15655979	      1.23462441	     -0.03221486	      1.25529958	      1.18691927	     -0.16458225	      1.23819012	      1.12560721	     -0.13147174	      0.99021954	      1.26607405	     -0.60253902	      1.16537462	      1.23814627	     -0.56036032	      1.14320704	      1.17403509	     -0.58244926
      3.15000000	     -0.79845405	      5.41472804	      1.19059588	      1.16205105	      0.96851507	     -0.32062161	     -7.26518350	     -1.86690791	     -2.33585369	    -91.07934180	     -9.87079765	     20.63033833	     13.05626735	      7.05042992	    -16.24024492	     -0.47129518	    -15.58655668	     -7.23460795	      9.85242312	    -31.19396235	    -19.70665955	      0.03822297	    119.43020394	     93.23232001	    -31.60476148	    -18.75673384	    -12.02549794	    129.65554523	     88.84123136	      0.00000000	      0.00000000	      0.00000000	      0.00000000	      0.00000000	      0.00000000	      0.00000000	      0.00000000	      1.16813182	      0.99563490	     -0.43485552	      1.17370096	      0.98053645	     -0.18289581	      0.99927145	      1.04692520	     -0.35249219	      0.99819738	      1.03950423	     -0.25869006	      1.10315256	      0.79400483	     -0.14515846	      1.11641074	      0.68915387	     -0.16011646	      1.02610829	      0.56959929	     -0.16905813	      1.11052763	      0.85345712	     -0.50348474	      1.21373612	      0.75764913	     -0.48556275	      1.18751275	      0.62177596	     -0.46716876	      0.86535621	      0.42691032	     -0.23792779	      0.76742089	      0.48717190	     -0.19525026	      0.69134627	      0.46633080	     -0.25614050	      1.28287239	      0.35160209	     -0.38071431	      1.24524119	      0.28740723	     -0.41355556	      1.26955044	      0.21659892	     -0.35196053	      0.62218468	      0.59463123	     -0.25440516	      0.54115343	      0.37420885	     -0.27900998	      0.50869849	      0.39851305	     -0.20868353	      1.15654876	      0.09521259	     -0.31858182	      1.43450608	      0.06013315	     -0.30150605	      1.37956040	      0.06646008	     -0.38556332	      1.15576268	      1.50178775	     -0.49316943	      1.22538646	      1.49560745	     -0.16571714	      1.24060978	      1.43284199	     -0.30800527	      1.13063498	      1.53027538	     -0.31865853	      1.17391408	      1.38727207	     -0.06402614	      1.10839897	      1.39256896	     -0.04813368	      1.11468466	      1.32110201	     -0.02291681	      1.07253012	      1.25449112	      0.00798181	      1.00731531	      1.26221455	     -0.06159595	      1.05280945	      1.42927050	     -0.56142094	      0.97387265	      1.40085206	     -0.52090222	      0.96711328	      1.33882076	     -0.58310867	      0.92249192	      1.28051953	     -0.59638391	      0.91566386	      1.25777348	     -0.50461407	      1.14392174	      1.21850417	     -0.03242262	      1.24635263	      1.16256837	     -0.15874010	      1.22499463	      1.10317144	     -0.12499539	      1.00273010	      1.24634060	     -0.60939743	      1.17708600	      1.22350953	     -0.56208042	      1.15726336	      1.15879972	     -0.58454350
